<svg xmlns="http://www.w3.org/2000/svg" id="prefix__order" width="14" height="18.261" viewBox="0 0 14 18.261">
    <defs>
        <style>
            .prefix__cls-1{fill:#2c436a}
        </style>
    </defs>
    <path id="prefix__Path_246" d="M.913 17.044h.3v.3a.9.9 0 0 0 .913.913h10.961a.9.9 0 0 0 .913-.909V1.522a.9.9 0 0 0-.913-.913h-.913v.609h.913a.288.288 0 0 1 .3.3v15.83a.288.288 0 0 1-.3.3H2.131a.288.288 0 0 1-.3-.3v-.3H11.87a.9.9 0 0 0 .913-.913V2.618L10.165 0H.913A.9.9 0 0 0 0 .913v15.218a.9.9 0 0 0 .913.913zm9.435-16.009l1.4 1.4h-1.1a.288.288 0 0 1-.3-.3zM.609.913a.288.288 0 0 1 .3-.3h8.83v1.518a.9.9 0 0 0 .913.913h1.522v13.087a.288.288 0 0 1-.3.3H.913a.288.288 0 0 1-.3-.3zm0 0" class="prefix__cls-1" data-name="Path 246"/>
    <path id="prefix__Path_247" d="M168 256h2.135v.534H168zm0 0" class="prefix__cls-1" data-name="Path 247" transform="translate(-161.443 -246.22)"/>
    <path id="prefix__Path_248" d="M40 256h3.47v.534H40zm0 0" class="prefix__cls-1" data-name="Path 248" transform="translate(-38.665 -246.22)"/>
    <path id="prefix__Path_249" d="M168 296h2.135v.534H168zm0 0" class="prefix__cls-1" data-name="Path 249" transform="translate(-161.443 -284.691)"/>
    <path id="prefix__Path_250" d="M168 336h2.135v.534H168zm0 0" class="prefix__cls-1" data-name="Path 250" transform="translate(-161.443 -323.163)"/>
    <path id="prefix__Path_251" d="M40 296h3.47v.534H40zm0 0" class="prefix__cls-1" data-name="Path 251" transform="translate(-38.665 -284.691)"/>
    <path id="prefix__Path_252" d="M40 336h3.47v.534H40zm0 0" class="prefix__cls-1" data-name="Path 252" transform="translate(-38.665 -323.163)"/>
    <path id="prefix__Path_253" d="M40 376h3.47v.534H40zm0 0" class="prefix__cls-1" data-name="Path 253" transform="translate(-38.665 -361.635)"/>
    <path id="prefix__Path_254" d="M168 376h2.135v.534H168zm0 0" class="prefix__cls-1" data-name="Path 254" transform="translate(-161.443 -361.635)"/>
    <path id="prefix__Path_255" d="M256 256h1.335v.534H256zm0 0" class="prefix__cls-1" data-name="Path 255" transform="translate(-246.115 -246.22)"/>
    <path id="prefix__Path_256" d="M256 296h1.335v.534H256zm0 0" class="prefix__cls-1" data-name="Path 256" transform="translate(-246.115 -284.691)"/>
    <path id="prefix__Path_257" d="M256 336h1.335v.534H256zm0 0" class="prefix__cls-1" data-name="Path 257" transform="translate(-246.115 -323.163)"/>
    <path id="prefix__Path_258" d="M256 376h1.335v.534H256zm0 0" class="prefix__cls-1" data-name="Path 258" transform="translate(-246.115 -361.635)"/>
    <path id="prefix__Path_259" d="M104.855 43.737h2.536l.534-1.869h.347v-.534h-.672L106.536 40h-.8l-1.068 1.335H104v.534h.32zm2.135-.534h-1.735l-.374-1.335h2.483zm-.99-2.669h.267l.641.8h-1.548zm0 0" class="prefix__cls-1" data-name="Path 259" transform="translate(-99.784 -38.665)"/>
    <path id="prefix__Path_260" d="M40 216h8.542v.534H40zm0 0" class="prefix__cls-1" data-name="Path 260" transform="translate(-38.665 -207.748)"/>
    <path id="prefix__Path_261" d="M120 176h3.2v.534H120zm0 0" class="prefix__cls-1" data-name="Path 261" transform="translate(-115.237 -169.276)"/>
</svg>
