<svg id="Layer_1" data-name="Layer 1" xmlns="http://www.w3.org/2000/svg" viewBox="0 0 485.27 401.64"><defs><style>.cls-1{fill:#f06627;}.cls-2{fill:#302e74;}.cls-3{fill:#fff;}.cls-4{fill:#3bc3f2;}.cls-5{fill:#080707;}</style></defs><title>Logo</title><rect class="cls-1" x="99.67" y="2.78" width="285.92" height="294.95" rx="5.55"/><path class="cls-2" d="M440.11,207.46a2.78,2.78,0,0,1,2.77,2.78V494.08a2.77,2.77,0,0,1-2.77,2.78H165.29a2.77,2.77,0,0,1-2.78-2.78V210.24a2.78,2.78,0,0,1,2.78-2.78H440.11m0-5.55H165.29a8.34,8.34,0,0,0-8.33,8.33V494.08a8.33,8.33,0,0,0,8.33,8.33H440.11a8.33,8.33,0,0,0,8.32-8.33V210.24a8.33,8.33,0,0,0-8.32-8.33Z" transform="translate(-60.06 -201.91)"/><rect class="cls-3" x="130.27" y="16.83" width="83.28" height="35.4" rx="14.57"/><path class="cls-2" d="M259,220.82a12.5,12.5,0,0,1,12.49,12.5v6.24A12.49,12.49,0,0,1,259,252.05H204.9a12.49,12.49,0,0,1-12.49-12.49v-6.24a12.5,12.5,0,0,1,12.49-12.5H259m0-4.16H204.9a16.67,16.67,0,0,0-16.65,16.66v6.24a16.67,16.67,0,0,0,16.65,16.66H259a16.67,16.67,0,0,0,16.66-16.66v-6.24A16.67,16.67,0,0,0,259,216.66Z" transform="translate(-60.06 -201.91)"/><path class="cls-3" d="M358.74,248.82A12.84,12.84,0,1,1,371.58,236,12.85,12.85,0,0,1,358.74,248.82Z" transform="translate(-60.06 -201.91)"/><path d="M358.74,225.22A10.76,10.76,0,1,1,348,236a10.75,10.75,0,0,1,10.76-10.76m0-4.16A14.92,14.92,0,1,0,373.66,236a14.93,14.93,0,0,0-14.92-14.92Z" transform="translate(-60.06 -201.91)"/><path class="cls-3" d="M402.23,248.82A12.84,12.84,0,1,1,415.07,236,12.85,12.85,0,0,1,402.23,248.82Z" transform="translate(-60.06 -201.91)"/><path d="M402.23,225.22A10.76,10.76,0,1,1,391.47,236a10.75,10.75,0,0,1,10.76-10.76m0-4.16A14.92,14.92,0,1,0,417.15,236a14.93,14.93,0,0,0-14.92-14.92Z" transform="translate(-60.06 -201.91)"/><path class="cls-2" d="M300,463.16a73.62,73.62,0,0,1-34.09-8.44,72.48,72.48,0,0,1-7.16-4.29l1.56-2.29a70.67,70.67,0,0,0,102.32-25.58l.1-.19,2.47,1.27-.12.22A73.3,73.3,0,0,1,300,463.16ZM238,429a73.42,73.42,0,0,1-3-73.47,72.88,72.88,0,0,1,33-32l1.21,2.5a70.19,70.19,0,0,0-31.77,30.75,70.61,70.61,0,0,0,2.86,70.69ZM373.37,395l-2.77-.2c.12-1.65.18-3.33.18-5a70.74,70.74,0,0,0-73.66-70.69L297,316.3a73.51,73.51,0,0,1,76.56,73.46C373.56,391.49,373.49,393.24,373.37,395Z" transform="translate(-60.06 -201.91)"/><circle class="cls-4" cx="300.09" cy="389.7" r="54.02" transform="translate(-175.63 450.74) rotate(-84.72)"/><rect class="cls-3" x="300.81" y="359.85" width="1.39" height="56.86" transform="translate(-246.31 125.01) rotate(-45)"/><rect class="cls-3" x="297.98" y="362.68" width="1.39" height="56.86" transform="translate(-249.14 123.84) rotate(-45)"/><rect class="cls-2" y="295.93" width="485.27" height="6.25"/><path class="cls-5" d="M94,530.81h16.25v58h28.46v13.59H94Z" transform="translate(-60.06 -201.91)"/><path class="cls-5" d="M172.27,602.39l-1-5.21H171c-3.4,4.15-8.71,6.38-14.87,6.38-10.51,0-16.77-7.65-16.77-15.93,0-13.49,12.1-20,30.47-19.86V567c0-2.77-1.48-6.69-9.45-6.69A29.27,29.27,0,0,0,146,564.26l-3-10.4c3.61-2,10.73-4.57,20.18-4.57,17.31,0,22.83,10.2,22.83,22.41v18a80.71,80.71,0,0,0,.74,12.64Zm-1.92-24.53c-8.49-.11-15.08,1.91-15.08,8.17,0,4.15,2.77,6.16,6.38,6.16a8.83,8.83,0,0,0,8.39-5.94,11.73,11.73,0,0,0,.31-2.76Z" transform="translate(-60.06 -201.91)"/><path class="cls-5" d="M242.36,585.72c0,6.79.21,12.31.42,16.67h-14l-.74-7.33h-.32c-2,3.19-6.9,8.5-16.25,8.5-10.51,0-18.26-6.59-18.26-22.62V550.46h16.24v27.93c0,7.54,2.45,12.1,8.08,12.1a8.7,8.7,0,0,0,8.07-5.62,9.13,9.13,0,0,0,.53-3.51v-30.9h16.25Z" transform="translate(-60.06 -201.91)"/><path class="cls-5" d="M249.9,567c0-6.48-.22-12-.43-16.57h14l.74,7.11h.32a19,19,0,0,1,16-8.28c10.62,0,18.58,7,18.58,22.3v30.8H283V573.61c0-6.69-2.34-11.26-8.18-11.26a8.6,8.6,0,0,0-8.17,6.06,11,11,0,0,0-.64,4v29.95H249.9Z" transform="translate(-60.06 -201.91)"/><path class="cls-5" d="M357.05,527v59.89c0,5.85.21,12,.42,15.51H343.14l-.75-7.65h-.21c-3.29,5.84-9.56,8.82-16.25,8.82-12.31,0-22.19-10.52-22.19-26.66-.11-17.52,10.83-27.61,23.26-27.61,6.37,0,11.36,2.23,13.7,5.84h.21V527Zm-16.14,45.45a27.7,27.7,0,0,0-.21-2.87,9.71,9.71,0,0,0-9.46-8c-7.32,0-11.15,6.58-11.15,14.76,0,8.81,4.36,14.34,11.05,14.34a9.45,9.45,0,0,0,9.34-7.75,13.72,13.72,0,0,0,.43-3.72Z" transform="translate(-60.06 -201.91)"/><path class="cls-5" d="M364.59,567.56c0-7.65-.21-12.64-.42-17.1h13.91l.53,9.56H379c2.66-7.54,9-10.73,14-10.73a16.83,16.83,0,0,1,3.4.21v15.19a23.3,23.3,0,0,0-4.35-.43c-6,0-10,3.19-11.05,8.18a19.24,19.24,0,0,0-.32,3.61v26.34H364.59Z" transform="translate(-60.06 -201.91)"/><path class="cls-1" d="M454.26,568.83H426.44v25.81h31v7.75H417.2V530.81h38.65v7.76H426.44v22.62h27.82Z" transform="translate(-60.06 -201.91)"/><path class="cls-1" d="M459.15,597l39.71-58.09v-.31H462.54v-7.76h48.32v5.63l-39.5,57.88v.32h40v7.75H459.15Z" transform="translate(-60.06 -201.91)"/></svg>