<svg xmlns="http://www.w3.org/2000/svg" width="18" height="18" viewBox="0 0 18 18"><path d="M16.242,1.547H14.566V1.055a1.055,1.055,0,1,0-2.109,0v.492H6.551V1.055a1.055,1.055,0,1,0-2.109,0V1.56a.351.351,0,0,0-.094-.013h-1.4A1.76,1.76,0,0,0,1.189,3.3V9.293a.352.352,0,0,0,.7,0V5.168H14.566a.352.352,0,1,0,0-.7H1.892V3.3A1.056,1.056,0,0,1,2.947,2.25h1.4a.352.352,0,0,0,.094-.013v.452a1.055,1.055,0,0,0,2.109,0V2.25h5.906v.439a1.055,1.055,0,1,0,2.109,0V2.25h1.676A1.056,1.056,0,0,1,17.3,3.3V16.664a.633.633,0,0,1-1.266,0v-.909a.352.352,0,0,0-.352-.352H11.59a.352.352,0,0,0,0,.7h3.738v.558a1.328,1.328,0,0,0,.16.633H1.336A.634.634,0,0,1,.7,16.664v-.558H8.572a.352.352,0,0,0,0-.7H5.059a2.883,2.883,0,1,0-3.757,0H.352A.352.352,0,0,0,0,15.754v.91A1.337,1.337,0,0,0,1.336,18H16.664A1.338,1.338,0,0,0,18,16.664V3.3A1.76,1.76,0,0,0,16.242,1.547ZM5.848,2.689a.352.352,0,1,1-.7,0V1.055a.352.352,0,1,1,.7,0Zm8.016,0a.352.352,0,1,1-.7,0V1.055a.352.352,0,1,1,.7,0ZM1,13.219a2.18,2.18,0,1,1,2.18,2.18A2.182,2.182,0,0,1,1,13.219Z" fill="#2c436a"/><g transform="translate(16.022 4.478)"><path d="M451.8,127.1a.325.325,0,1,0,.1.23A.328.328,0,0,0,451.8,127.1Z" transform="translate(-451.24 -127)" fill="#2c436a"/></g><g transform="translate(9.929 15.595)"><path d="M282.136,438.225a.326.326,0,1,0,.1.23A.328.328,0,0,0,282.136,438.225Z" transform="translate(-281.58 -438.13)" fill="#2c436a"/></g><g transform="translate(6.703 10.825)"><path d="M189.482,304a1.237,1.237,0,1,0,1.237,1.237A1.238,1.238,0,0,0,189.482,304Zm0,1.823a.586.586,0,1,1,.586-.586A.587.587,0,0,1,189.482,305.823Z" transform="translate(-188.245 -304)" fill="#2c436a"/></g><g transform="translate(10.027 10.825)"><path d="M282.815,304a1.237,1.237,0,1,0,1.237,1.237A1.238,1.238,0,0,0,282.815,304Zm0,1.823a.586.586,0,1,1,.586-.586A.587.587,0,0,1,282.815,305.823Z" transform="translate(-281.578 -304)" fill="#2c436a"/></g><g transform="translate(13.537 10.825)"><path d="M376.149,304a1.237,1.237,0,1,0,1.237,1.237A1.238,1.238,0,0,0,376.149,304Zm0,1.823a.586.586,0,1,1,.586-.586A.587.587,0,0,1,376.149,305.823Z" transform="translate(-374.912 -304)" fill="#2c436a"/></g><g transform="translate(3.38 7.122)"><path d="M96.149,200a1.237,1.237,0,1,0,1.237,1.237A1.238,1.238,0,0,0,96.149,200Zm0,1.823a.586.586,0,1,1,.586-.586A.587.587,0,0,1,96.149,201.823Z" transform="translate(-94.912 -200)" fill="#2c436a"/></g><g transform="translate(10.027 7.122)"><path d="M282.815,200a1.237,1.237,0,1,0,1.237,1.237A1.238,1.238,0,0,0,282.815,200Zm0,1.823a.586.586,0,1,1,.586-.586A.587.587,0,0,1,282.815,201.823Z" transform="translate(-281.578 -200)" fill="#2c436a"/></g><g transform="translate(13.537 7.122)"><path d="M376.149,200a1.237,1.237,0,1,0,1.237,1.237A1.238,1.238,0,0,0,376.149,200Zm0,1.823a.586.586,0,1,1,.586-.586A.587.587,0,0,1,376.149,201.823Z" transform="translate(-374.912 -200)" fill="#2c436a"/></g><g transform="translate(6.703 7.122)"><path d="M189.482,200a1.237,1.237,0,1,0,1.237,1.237A1.238,1.238,0,0,0,189.482,200Zm0,1.823a.586.586,0,1,1,.586-.586A.587.587,0,0,1,189.482,201.823Z" transform="translate(-188.245 -200)" fill="#2c436a"/></g><g transform="translate(1.666 12.379)"><path d="M53.633,348.8a.326.326,0,0,0-.46,0l-1.06,1.06-.362-.362a.326.326,0,0,0-.46.46l.592.592a.326.326,0,0,0,.46,0l1.29-1.29A.325.325,0,0,0,53.633,348.8Z" transform="translate(-51.194 -348.7)" fill="#2c436a"/></g></svg>