<svg xmlns="http://www.w3.org/2000/svg" width="18" height="18" viewBox="0 0 18 18"><path d="M9,0a9,9,0,1,0,9,9A9,9,0,0,0,9,0ZM9,16.945A7.945,7.945,0,1,1,16.945,9,7.954,7.954,0,0,1,9,16.945Z" fill="#2c436a"/><circle cx="0.5" cy="0.5" r="0.5" transform="translate(8.097 1.5)" fill="#2c436a"/><circle cx="0.5" cy="0.5" r="0.5" transform="translate(1.821 8.903)" fill="#2c436a"/><circle cx="0.5" cy="0.5" r="0.5" transform="translate(15.5 8.903)" fill="#2c436a"/><circle cx="0.5" cy="0.5" r="0.5" transform="translate(8.097 15.179)" fill="#2c436a"/><path d="M170,143.373l-2.006,2.013a1.352,1.352,0,0,0-1.262.087l-1.295-1.083a.449.449,0,1,0-.576.689l1.31,1.1a1.347,1.347,0,1,0,2.473-.171l1.991-2a.449.449,0,1,0-.636-.634Zm-2.237,3.559a.449.449,0,1,1,0-.635A.449.449,0,0,1,167.764,146.932Z" transform="translate(-158.346 -137.871)" fill="#2c436a"/></svg>