<svg xmlns="http://www.w3.org/2000/svg" width="34.667" height="20.363" viewBox="0 0 34.667 20.363"><g transform="translate(0 0)"><path d="M33.987,5.972a.68.68,0,0,0,.68-.68V.68a.68.68,0,0,0-.68-.68H.68A.68.68,0,0,0,0,.68V5.292a.68.68,0,0,0,.68.68,4.21,4.21,0,0,1,0,8.419.68.68,0,0,0-.68.68v4.612a.68.68,0,0,0,.68.68H6.726a.68.68,0,1,0,0-1.36H1.36V15.71a5.57,5.57,0,0,0,0-11.057V1.36H24.715V2.72a.68.68,0,1,0,1.36,0V1.36h7.232V4.653a5.57,5.57,0,0,0,0,11.057V19H26.075v-1.36a.68.68,0,0,0-1.36,0V19H12.309a.68.68,0,1,0,0,1.36H33.987a.68.68,0,0,0,.68-.68V15.071a.68.68,0,0,0-.68-.68,4.21,4.21,0,0,1,0-8.419Zm0,0" fill="#ffa304"/><path d="M365.7,109.928a.68.68,0,0,0,.68-.68v-4.974a.68.68,0,0,0-1.36,0v4.974A.68.68,0,0,0,365.7,109.928Zm0,0" transform="translate(-340.305 -96.579)" fill="#ffa304"/><path d="M151.115,73.406a2.673,2.673,0,1,0-1.887.78A2.652,2.652,0,0,0,151.115,73.406Zm-3.2-1.887a1.309,1.309,0,1,1,.384.926A1.3,1.3,0,0,1,147.918,71.519Zm0,0" transform="translate(-136.635 -64.189)" fill="#ffa304"/><path d="M237.48,158.684a2.669,2.669,0,1,0,3.775,0A2.672,2.672,0,0,0,237.48,158.684Zm2.813.962a1.311,1.311,0,1,1-.926-.383,1.311,1.311,0,0,1,.926.383Zm0,0" transform="translate(-220.672 -147.212)" fill="#ffa304"/><path d="M169.761,99.087,176.844,92a.68.68,0,0,0-.962-.962L168.8,98.125a.68.68,0,1,0,.962.962Zm0,0" transform="translate(-157.187 -84.693)" fill="#ffa304"/><path d="M131.04,280.555a.68.68,0,1,0,.668.552A.686.686,0,0,0,131.04,280.555Zm0,0" transform="translate(-121.535 -261.559)" fill="#ffa304"/></g></svg>