<svg id="svg" version="1.1" xmlns="http://www.w3.org/2000/svg" xmlns:xlink="http://www.w3.org/1999/xlink" width="400" height="374.91525423728814" viewBox="0, 0, 400,374.91525423728814"><g id="svgg"><path id="path0" d="M247.191 33.983 C 246.626 34.290,246.057 34.963,245.928 35.479 C 245.397 37.594,240.901 37.900,240.901 35.822 C 240.901 34.703,239.964 33.771,238.841 33.771 C 237.428 33.771,236.773 34.169,236.767 35.031 C 236.760 36.113,236.418 36.562,235.084 37.245 C 232.278 38.682,232.442 37.320,232.595 57.922 C 232.722 75.122,232.779 76.454,233.443 77.760 L 234.154 79.159 173.081 79.261 L 112.008 79.362 109.525 80.574 C 105.858 82.363,102.843 85.717,101.697 89.280 L 100.825 91.991 101.051 206.315 C 101.226 294.514,101.381 320.959,101.733 322.045 C 102.349 323.945,102.084 324.067,99.462 323.086 L 97.210 322.244 98.181 320.972 C 98.714 320.272,99.310 319.700,99.504 319.700 C 99.698 319.700,99.752 319.531,99.625 319.325 C 99.473 319.080,89.203 318.949,70.037 318.949 L 40.682 318.949 39.146 320.544 C 36.217 323.585,35.749 328.302,37.905 333.035 C 39.472 336.474,36.203 336.210,76.923 336.188 C 119.357 336.166,123.849 335.911,115.996 333.971 C 111.814 332.937,110.780 332.321,112.272 331.751 C 114.849 330.767,128.330 330.138,128.330 331.001 C 128.330 331.232,127.826 331.995,127.210 332.697 C 124.722 335.530,125.273 336.699,129.187 336.896 C 133.178 337.096,134.312 336.696,135.299 334.735 C 136.232 332.883,137.968 331.126,139.406 330.579 C 140.662 330.102,216.135 330.064,216.135 330.541 C 216.135 330.725,215.460 331.692,214.634 332.691 C 211.922 335.974,212.561 336.698,218.004 336.508 L 221.185 336.398 222.153 334.564 C 222.686 333.556,223.776 332.205,224.577 331.562 L 226.032 330.394 236.374 330.197 L 246.717 330.001 249.045 328.747 C 253.217 326.500,254.264 325.265,257.080 319.267 C 257.774 317.790,257.946 92.653,257.255 90.244 C 256.110 86.251,253.587 83.061,249.971 81.036 C 247.213 79.491,247.482 79.174,251.556 79.174 C 259.367 79.174,258.865 80.658,259.162 56.700 C 259.431 35.087,259.424 35.000,257.377 33.941 C 255.904 33.179,248.616 33.210,247.191 33.983 M256.849 36.024 C 257.412 36.645,257.456 36.939,257.103 37.713 C 256.163 39.776,247.280 38.875,247.280 36.716 C 247.280 35.093,255.471 34.501,256.849 36.024 M247.197 63.839 C 249.731 64.849,252.686 65.801,253.763 65.956 L 255.722 66.236 256.052 69.924 C 256.356 73.313,256.322 73.693,255.637 74.611 L 254.891 75.610 245.958 75.711 C 234.378 75.841,235.078 76.297,235.435 68.856 C 235.832 60.586,237.378 59.927,247.197 63.839 M179.894 98.914 C 180.697 99.223,180.648 100.826,179.821 101.268 C 178.434 102.011,177.191 100.257,178.311 99.137 C 178.823 98.626,179.056 98.593,179.894 98.914 M217.333 101.407 C 218.253 102.137,218.532 107.448,217.700 108.400 C 216.952 109.257,211.262 109.798,210.544 109.080 C 209.669 108.205,210.026 101.854,210.976 101.396 C 212.160 100.825,216.609 100.832,217.333 101.407 M228.176 101.542 C 228.800 102.293,228.675 108.039,228.020 108.701 C 227.373 109.355,221.615 109.473,220.861 108.848 C 219.829 107.991,220.012 102.282,221.097 101.522 C 222.288 100.688,227.480 100.702,228.176 101.542 M232.652 105.296 C 233.020 107.557,232.872 108.818,232.237 108.818 C 231.392 108.818,231.068 107.056,231.515 104.899 C 232.045 102.347,232.180 102.394,232.652 105.296 M186.689 115.030 C 185.668 116.368,184.991 116.686,184.991 115.828 C 184.991 114.797,187.417 112.064,187.552 112.942 C 187.620 113.380,187.231 114.319,186.689 115.030 M172.780 114.349 C 173.863 115.516,173.974 115.947,173.192 115.947 C 172.593 115.947,171.482 114.552,171.482 113.800 C 171.482 113.102,171.715 113.200,172.780 114.349 M187.054 151.955 C 190.384 152.429,193.863 153.213,194.221 153.571 C 194.373 153.722,194.800 153.846,195.172 153.846 C 195.543 153.846,196.401 154.085,197.079 154.378 C 197.757 154.670,198.903 155.165,199.626 155.477 C 200.348 155.789,201.751 156.392,202.743 156.818 C 203.735 157.243,205.761 158.393,207.245 159.374 C 208.730 160.354,210.197 161.265,210.507 161.398 C 212.581 162.286,220.243 170.133,223.285 174.483 C 227.348 180.292,230.857 188.853,231.975 195.685 C 232.891 201.282,232.387 213.982,231.126 217.073 C 230.958 217.486,230.744 218.330,230.650 218.949 C 230.475 220.104,229.795 222.196,229.218 223.353 C 229.039 223.712,228.893 224.181,228.893 224.397 C 228.893 225.070,225.775 231.520,225.449 231.520 C 225.280 231.520,225.141 231.826,225.141 232.199 C 225.141 232.573,224.844 233.206,224.482 233.607 C 224.119 234.007,223.317 235.121,222.699 236.082 C 219.854 240.511,213.902 246.294,208.673 249.711 C 204.583 252.384,197.307 255.910,195.882 255.910 C 195.488 255.910,195.062 256.079,194.934 256.285 C 194.807 256.492,194.155 256.660,193.486 256.660 C 192.817 256.660,192.110 256.814,191.914 257.003 C 190.119 258.726,168.168 258.750,166.448 257.030 C 166.245 256.827,165.614 256.660,165.046 256.660 C 164.478 256.660,163.625 256.510,163.151 256.326 C 162.677 256.142,161.529 255.698,160.600 255.340 C 157.465 254.128,152.345 251.647,152.345 251.338 C 152.345 251.170,152.105 251.032,151.811 251.032 C 151.517 251.032,150.775 250.610,150.162 250.094 C 149.549 249.578,148.893 249.156,148.703 249.156 C 148.514 249.156,148.032 248.858,147.632 248.493 C 147.232 248.129,146.070 247.158,145.051 246.336 C 140.291 242.495,132.083 232.318,132.083 230.257 C 132.083 229.944,131.918 229.586,131.717 229.462 C 131.344 229.231,130.812 228.119,129.650 225.141 C 128.090 221.142,127.580 219.489,127.580 218.429 C 127.580 217.966,127.385 217.223,127.148 216.779 C 125.536 213.768,125.333 198.441,126.832 193.058 C 127.005 192.439,127.421 190.919,127.758 189.681 C 128.095 188.443,128.530 187.050,128.726 186.585 C 128.921 186.121,129.235 185.361,129.423 184.897 C 134.908 171.375,147.262 159.119,159.410 155.145 C 160.484 154.794,161.454 154.358,161.566 154.176 C 161.679 153.995,162.185 153.846,162.691 153.846 C 163.198 153.846,163.906 153.693,164.264 153.506 C 164.978 153.133,169.255 152.198,172.795 151.641 C 175.381 151.234,183.192 151.406,187.054 151.955 M237.782 221.295 C 237.688 221.656,237.611 221.360,237.611 220.638 C 237.611 219.916,237.688 219.620,237.782 219.981 C 237.876 220.342,237.876 220.933,237.782 221.295 M121.835 225.797 C 121.740 226.159,121.663 225.863,121.663 225.141 C 121.663 224.418,121.740 224.123,121.835 224.484 C 121.929 224.845,121.929 225.436,121.835 225.797 M123.071 228.987 C 123.074 229.554,122.908 230.019,122.702 230.019 C 122.495 230.019,122.329 229.301,122.332 228.424 C 122.336 227.256,122.435 226.980,122.702 227.392 C 122.902 227.702,123.068 228.419,123.071 228.987 M235.723 229.764 C 235.475 230.449,235.273 231.251,235.273 231.546 C 235.274 231.841,234.907 232.842,234.458 233.771 C 234.009 234.700,233.524 235.797,233.381 236.210 C 232.863 237.705,232.137 239.024,231.832 239.024 C 231.417 239.024,231.435 238.050,231.863 237.237 C 232.553 235.929,233.396 233.835,233.396 233.428 C 233.396 233.198,233.551 232.717,233.740 232.359 C 234.562 230.799,235.272 228.916,235.272 228.292 C 235.272 227.767,235.372 227.717,235.723 228.068 C 236.073 228.418,236.073 228.795,235.723 229.764 M124.370 232.176 C 124.725 233.157,125.361 234.851,125.784 235.942 C 126.206 237.033,126.450 238.028,126.325 238.153 C 125.873 238.605,125.124 237.546,124.642 235.770 C 124.371 234.774,123.908 233.511,123.613 232.963 C 123.019 231.858,122.898 230.394,123.401 230.394 C 123.580 230.394,124.016 231.196,124.370 232.176 M312.582 260.496 C 310.923 261.374,309.898 263.345,310.000 265.465 C 310.078 267.080,309.896 267.655,308.749 269.424 C 307.160 271.875,306.192 274.537,306.189 276.467 C 306.182 281.031,305.148 281.826,299.380 281.705 C 296.435 281.643,294.881 281.758,294.507 282.066 C 294.206 282.315,293.208 282.620,292.289 282.744 C 286.690 283.500,283.215 286.252,282.875 290.201 C 282.688 292.366,281.717 292.296,312.195 292.299 C 343.475 292.303,345.591 292.225,345.591 291.077 C 345.591 286.346,340.715 282.467,335.560 283.098 C 330.224 283.751,330.217 283.749,328.758 281.297 C 327.460 279.114,324.154 276.173,323.000 276.173 C 322.024 276.173,320.466 274.677,319.540 272.852 C 318.125 270.061,315.706 268.563,312.884 268.730 C 311.190 268.830,311.233 268.868,310.946 266.979 C 310.596 264.678,311.000 264.335,313.917 264.457 C 317.301 264.598,317.826 264.390,317.812 262.920 C 317.788 260.562,314.947 259.246,312.582 260.496 M297.467 268.507 C 296.609 268.973,296.435 269.318,296.435 270.556 L 296.435 272.045 299.219 272.045 C 302.352 272.045,303.189 272.256,303.189 273.045 C 303.189 273.345,303.358 273.486,303.565 273.358 C 303.771 273.231,303.940 272.698,303.940 272.175 C 303.940 269.164,300.182 267.035,297.467 268.507 " stroke="none" fill="#d4e0f7" fill-rule="evenodd"></path><path id="path1" d="M0.000 187.617 L 0.000 375.235 200.000 375.235 L 400.000 375.235 400.000 187.617 L 400.000 0.000 200.000 0.000 L 0.000 0.000 0.000 187.617 M240.715 33.551 C 241.213 34.049,241.730 34.894,241.864 35.427 C 242.159 36.602,245.028 36.937,245.028 35.797 C 245.028 35.467,245.628 34.597,246.360 33.865 L 247.693 32.532 256.162 32.798 C 265.130 33.079,265.865 33.233,266.898 35.044 C 267.598 36.269,267.283 75.976,266.563 77.373 C 266.276 77.931,266.041 78.559,266.041 78.769 C 266.041 79.025,277.224 79.186,299.906 79.257 L 333.771 79.362 335.946 80.446 C 340.776 82.853,343.598 86.744,344.507 92.249 C 345.008 95.281,344.352 121.225,343.704 124.021 C 343.513 124.843,343.353 126.234,343.349 127.111 L 343.340 128.705 301.313 128.705 L 259.287 128.705 259.276 130.300 C 259.270 131.177,259.107 135.863,258.913 140.713 C 258.719 145.563,258.543 181.867,258.523 221.388 C 258.502 260.910,258.360 299.156,258.208 306.379 L 257.930 319.512 256.544 322.391 C 254.615 326.402,251.509 328.989,246.904 330.423 C 245.653 330.813,242.853 330.950,236.098 330.953 C 225.097 330.958,223.660 331.444,222.506 335.550 C 222.020 337.279,221.604 337.401,216.698 337.258 L 212.946 337.148 212.829 335.525 C 212.737 334.254,212.917 333.634,213.657 332.663 C 214.177 331.982,214.496 331.319,214.368 331.191 C 214.239 331.062,197.487 330.960,177.142 330.963 L 140.150 330.969 138.649 331.807 C 137.566 332.412,136.880 333.196,136.184 334.623 C 135.653 335.711,135.033 336.787,134.805 337.015 C 134.507 337.313,121.518 337.410,88.359 337.361 L 42.327 337.293 40.379 336.432 C 34.920 334.018,34.353 323.023,39.496 319.298 L 41.013 318.199 57.416 318.199 L 73.818 318.199 74.052 311.163 C 74.182 307.294,74.383 298.133,74.500 290.807 C 74.788 272.778,74.795 272.752,79.869 272.420 L 82.739 272.233 82.592 176.148 L 82.444 80.064 83.487 79.244 C 84.812 78.201,85.268 78.214,86.564 79.330 L 87.617 80.236 87.617 176.235 L 87.617 272.233 89.118 272.354 C 92.677 272.642,92.902 273.462,93.243 287.430 C 93.402 293.931,93.637 303.471,93.764 308.630 L 93.996 318.011 97.092 318.120 L 100.188 318.229 100.188 205.045 C 100.188 101.330,100.239 91.683,100.802 89.739 C 102.311 84.528,106.621 80.397,111.970 79.037 C 112.996 78.776,133.298 78.608,172.932 78.533 L 232.355 78.419 232.063 77.202 C 231.902 76.533,231.711 68.035,231.638 58.318 C 231.490 38.605,231.496 38.552,233.951 37.103 C 234.718 36.651,235.389 35.867,235.627 35.146 C 236.394 32.822,239.128 31.965,240.715 33.551 M248.405 36.398 C 248.405 36.604,249.324 36.773,250.447 36.773 C 251.570 36.773,252.593 36.604,252.720 36.398 C 252.865 36.163,252.099 36.023,250.679 36.023 C 249.413 36.023,248.405 36.189,248.405 36.398 M176.360 152.441 C 176.257 152.540,174.822 152.726,173.171 152.854 C 168.591 153.209,165.887 153.688,163.415 154.583 C 162.176 155.032,160.488 155.621,159.662 155.892 C 157.966 156.451,152.257 159.077,151.970 159.431 C 151.867 159.558,150.347 160.626,148.593 161.803 C 145.043 164.185,139.598 169.349,137.240 172.568 C 136.393 173.725,135.598 174.756,135.474 174.859 C 134.260 175.866,130.183 184.260,128.767 188.666 C 126.657 195.230,126.206 198.487,127.486 197.906 C 129.780 196.863,138.950 197.537,140.901 198.891 C 141.107 199.035,141.951 199.364,142.777 199.623 C 143.602 199.882,146.135 201.036,148.405 202.187 C 152.461 204.243,153.651 204.903,160.413 208.840 C 162.270 209.921,164.381 211.133,165.103 211.532 C 172.945 215.864,175.296 217.101,179.174 218.937 C 181.651 220.109,184.015 221.204,184.428 221.369 C 184.841 221.535,185.685 221.876,186.304 222.127 C 201.132 228.145,214.404 227.344,223.852 219.860 C 227.425 217.029,231.520 212.539,231.520 211.450 C 231.520 210.939,231.722 209.343,231.969 207.903 C 232.582 204.328,231.277 192.719,229.975 190.155 C 229.793 189.797,229.644 189.254,229.644 188.948 C 229.644 188.643,229.367 187.754,229.029 186.973 C 228.690 186.192,228.287 185.216,228.132 184.803 C 224.148 174.189,214.328 163.463,203.752 158.172 C 202.617 157.604,201.395 156.989,201.037 156.806 C 200.253 156.405,195.456 154.704,193.621 154.176 C 190.191 153.190,176.964 151.860,176.360 152.441 M180.751 158.538 C 184.333 161.047,182.129 164.001,176.360 164.423 C 174.400 164.566,171.698 164.792,170.356 164.925 C 166.882 165.270,165.156 163.306,166.586 160.633 C 167.631 158.681,178.632 157.054,180.751 158.538 M160.386 164.567 C 161.766 165.947,160.975 167.498,158.010 169.231 C 152.683 172.342,145.044 180.053,143.211 184.166 C 142.963 184.723,142.426 185.769,142.018 186.492 C 141.610 187.214,140.932 188.731,140.512 189.862 C 139.541 192.476,138.250 193.359,136.682 192.482 C 134.815 191.438,135.446 188.934,139.403 181.682 C 141.126 178.523,147.146 171.194,148.066 171.134 C 148.292 171.119,148.798 170.747,149.191 170.306 C 152.474 166.630,159.068 163.249,160.386 164.567 M202.515 203.073 C 205.818 204.476,206.811 207.944,204.474 209.910 C 202.952 211.191,201.056 211.204,199.404 209.944 C 197.127 208.207,194.652 208.975,193.792 211.684 C 193.400 212.920,192.690 212.238,192.564 210.503 C 192.181 205.227,197.768 201.055,202.515 203.073 M188.541 209.136 C 189.099 209.545,189.185 209.936,188.988 211.170 C 188.689 213.043,188.974 213.884,189.909 213.884 C 190.722 213.884,190.821 214.282,190.169 214.934 C 188.505 216.598,184.986 214.238,184.996 211.467 C 185.006 208.935,186.722 207.806,188.541 209.136 M205.023 218.122 C 205.490 218.463,205.651 218.993,205.564 219.904 L 205.441 221.201 203.115 221.312 C 201.148 221.406,200.752 221.543,200.544 222.198 C 200.325 222.889,200.237 222.912,199.732 222.407 C 197.667 220.342,202.599 216.349,205.023 218.122 M317.213 260.067 C 318.736 261.265,319.064 262.118,318.573 263.606 L 318.150 264.886 315.079 264.995 L 312.008 265.103 312.008 266.604 L 312.008 268.105 314.071 268.293 C 316.722 268.535,318.739 269.779,319.755 271.801 C 320.863 274.006,321.478 274.603,323.741 275.674 C 325.942 276.715,328.296 278.962,329.589 281.253 C 330.369 282.636,330.530 282.732,331.911 282.630 C 338.904 282.116,339.141 282.120,340.397 282.767 C 343.711 284.474,345.742 287.014,346.271 290.111 L 346.550 291.745 361.475 291.843 C 377.929 291.951,377.448 291.882,378.980 294.361 C 379.814 295.711,380.019 298.960,379.349 300.212 C 379.005 300.854,378.535 300.938,375.267 300.938 C 370.842 300.938,370.855 300.927,370.541 304.889 C 370.411 306.534,370.081 308.471,369.808 309.193 C 369.535 309.916,369.091 311.266,368.822 312.195 C 365.274 324.430,353.646 334.271,340.150 336.460 C 336.110 337.116,317.803 337.163,314.259 336.526 C 296.007 333.250,282.177 318.852,282.176 303.126 C 282.176 300.593,282.128 300.563,277.915 300.557 C 273.537 300.550,273.368 300.483,273.021 298.597 C 272.274 294.533,275.303 291.566,280.206 291.559 C 281.527 291.558,281.801 291.434,281.801 290.838 C 281.801 286.858,286.850 282.176,291.143 282.176 C 292.173 282.176,293.596 281.848,294.537 281.394 C 296.174 280.603,297.216 280.582,301.505 281.252 C 303.545 281.571,305.066 280.442,305.066 278.608 C 305.066 275.420,306.306 271.873,308.667 268.304 C 309.446 267.127,309.620 266.505,309.455 265.485 C 308.725 260.991,313.843 257.416,317.213 260.067 M301.891 267.762 C 304.392 268.949,305.636 273.901,303.774 275.264 C 302.714 276.041,302.439 275.928,302.439 274.718 C 302.439 273.131,301.636 272.653,299.414 272.916 C 296.403 273.273,295.685 272.817,295.685 270.548 C 295.685 267.587,298.684 266.240,301.891 267.762 " stroke="none" fill="#4a61ec" fill-rule="evenodd"></path><path id="path2" d="M250.762 38.550 C 251.748 38.628,253.268 38.627,254.139 38.548 C 255.010 38.469,254.203 38.406,252.345 38.407 C 250.488 38.408,249.775 38.473,250.762 38.550 M237.997 61.820 C 235.913 62.061,235.640 62.897,235.704 68.845 C 235.734 71.740,235.825 73.602,235.904 72.983 C 236.282 70.041,235.822 70.169,246.022 70.169 L 255.145 70.169 255.331 71.013 C 255.433 71.477,255.583 72.364,255.664 72.983 C 255.745 73.602,255.792 72.338,255.767 70.173 L 255.722 66.238 253.763 65.957 C 252.686 65.802,249.731 64.849,247.197 63.839 C 242.673 62.037,240.414 61.541,237.997 61.820 M241.557 75.327 C 243.879 75.393,247.678 75.393,250.000 75.327 C 252.322 75.261,250.422 75.207,245.779 75.207 C 241.135 75.207,239.235 75.261,241.557 75.327 M83.459 79.822 C 82.822 80.458,82.872 262.620,83.511 269.015 C 83.864 272.553,83.359 273.171,80.109 273.171 C 75.519 273.171,75.661 272.862,75.345 283.550 C 75.200 288.470,74.970 293.508,74.835 294.747 C 74.699 295.985,74.710 301.599,74.860 307.223 L 75.132 317.448 77.363 317.448 C 80.362 317.448,79.861 318.180,76.807 318.260 L 74.484 318.320 77.298 318.586 C 81.237 318.957,87.879 318.996,90.994 318.665 C 93.494 318.400,93.377 318.377,88.555 318.199 L 83.490 318.011 83.495 314.447 C 83.498 312.486,83.709 308.085,83.964 304.667 C 84.219 301.250,84.519 294.073,84.632 288.720 C 84.843 278.717,85.230 274.921,86.144 273.898 C 87.467 272.417,87.980 81.408,86.665 79.996 C 85.746 79.010,84.347 78.934,83.459 79.822 M210.976 101.396 C 210.197 101.772,210.131 102.054,210.131 105.048 C 210.131 109.052,210.256 109.193,213.796 109.193 C 217.896 109.193,218.011 109.081,218.011 105.066 C 218.011 102.137,217.920 101.666,217.285 101.327 C 216.345 100.823,212.066 100.870,210.976 101.396 M129.008 197.874 C 125.870 198.762,125.967 198.463,126.190 206.554 C 126.448 215.948,127.414 219.997,131.417 228.464 C 132.838 231.471,136.411 236.833,138.458 239.032 C 139.879 240.557,139.946 240.591,139.182 239.400 C 138.719 238.677,137.988 237.795,137.557 237.438 C 137.126 237.081,136.970 236.786,137.210 236.781 C 137.450 236.777,138.255 237.364,138.999 238.086 L 140.351 239.400 179.557 239.400 C 201.119 239.400,218.762 239.513,218.762 239.652 C 218.762 239.790,218.469 240.254,218.111 240.683 C 217.753 241.112,218.024 240.957,218.713 240.338 C 223.409 236.118,229.578 224.206,231.192 216.239 C 231.848 213.002,231.562 213.009,228.461 216.306 C 225.836 219.096,219.134 224.015,217.957 224.015 C 217.657 224.015,217.250 224.161,217.054 224.339 C 214.902 226.295,204.455 227.263,197.936 226.110 C 189.826 224.675,177.956 219.522,164.540 211.613 C 162.889 210.640,160.863 209.464,160.038 209.000 C 159.212 208.537,156.426 206.972,153.846 205.523 C 148.838 202.710,142.491 199.625,141.712 199.625 C 141.451 199.625,141.078 199.475,140.882 199.291 C 139.484 197.982,131.846 197.071,129.008 197.874 M199.517 205.548 C 197.269 207.830,197.581 208.802,201.061 210.358 C 204.650 211.963,207.056 206.829,203.762 204.597 C 202.006 203.407,201.517 203.517,199.517 205.548 M186.207 209.440 C 185.525 210.122,185.635 211.021,186.542 212.174 C 187.554 213.461,188.266 212.905,188.438 210.694 C 188.564 209.076,187.288 208.359,186.207 209.440 M203.217 219.482 C 202.595 220.169,202.600 220.222,203.321 220.608 C 204.665 221.327,205.253 221.108,205.253 219.887 C 205.253 218.545,204.246 218.345,203.217 219.482 M220.579 237.523 C 219.709 238.700,219.512 238.851,219.512 238.345 C 219.512 238.010,220.932 236.398,221.227 236.398 C 221.328 236.398,221.036 236.904,220.579 237.523 M275.762 292.759 C 273.651 294.043,272.781 296.931,273.883 298.991 L 274.323 299.812 311.074 299.812 L 347.825 299.812 348.445 298.866 C 349.309 297.548,348.940 295.270,347.597 293.626 L 346.529 292.319 311.671 292.220 C 279.401 292.127,276.735 292.167,275.762 292.759 M283.201 301.949 C 281.292 302.446,284.927 315.446,287.894 318.734 C 288.253 319.132,288.645 319.765,288.764 320.141 C 288.883 320.518,289.139 320.826,289.331 320.826 C 289.524 320.826,289.681 321.058,289.681 321.343 C 289.681 321.627,290.188 322.070,290.807 322.326 C 291.426 322.583,291.932 322.941,291.932 323.122 C 291.932 323.808,338.380 323.526,339.842 322.832 C 344.382 320.678,350.809 305.030,348.218 302.439 C 347.506 301.727,285.836 301.262,283.201 301.949 " stroke="none" fill="#42cde7" fill-rule="evenodd"></path><path id="path3" d="M257.752 33.567 C 259.720 35.083,259.638 34.103,259.650 56.241 L 259.662 77.022 258.322 78.286 L 256.982 79.550 253.013 79.550 L 249.044 79.550 251.554 81.450 C 254.028 83.323,256.001 85.594,256.747 87.430 C 256.957 87.946,257.266 88.705,257.434 89.118 C 258.159 90.900,258.276 94.264,258.501 119.700 C 258.632 134.456,258.778 144.672,258.827 142.402 C 258.875 140.131,259.025 136.121,259.159 133.490 L 259.403 128.705 301.371 128.705 L 343.340 128.705 343.349 127.111 C 343.353 126.234,343.513 124.843,343.704 124.021 C 344.352 121.225,345.008 95.281,344.507 92.249 C 343.598 86.744,340.776 82.853,335.946 80.446 L 333.771 79.362 299.906 79.257 C 277.224 79.186,266.041 79.025,266.041 78.769 C 266.041 78.559,266.276 77.931,266.563 77.373 C 267.283 75.976,267.598 36.269,266.898 35.044 C 266.018 33.500,264.888 33.119,260.743 32.965 L 256.779 32.818 257.752 33.567 M252.886 36.237 C 252.529 36.666,251.799 36.800,250.122 36.743 C 247.876 36.665,247.239 37.162,248.529 37.983 C 249.546 38.630,256.239 38.311,256.621 37.597 C 257.365 36.207,253.944 34.962,252.886 36.237 M236.488 70.914 C 235.895 71.864,235.886 74.010,236.473 74.597 C 237.112 75.236,254.445 75.236,255.084 74.597 C 255.558 74.123,255.695 71.772,255.307 70.762 C 254.914 69.739,237.133 69.882,236.488 70.914 M83.487 79.244 L 82.444 80.064 82.592 176.148 L 82.739 272.233 79.869 272.420 C 74.795 272.752,74.788 272.778,74.500 290.807 C 74.383 298.133,74.182 307.294,74.052 311.163 L 73.818 318.199 76.474 318.199 C 77.935 318.199,79.235 318.030,79.362 317.824 C 79.507 317.590,78.755 317.448,77.363 317.448 L 75.132 317.448 74.860 307.223 C 74.710 301.599,74.699 295.985,74.835 294.747 C 74.970 293.508,75.200 288.470,75.345 283.550 C 75.661 272.862,75.519 273.171,80.109 273.171 C 83.359 273.171,83.864 272.553,83.511 269.015 C 82.872 262.620,82.822 80.458,83.459 79.822 C 84.330 78.951,85.790 79.004,86.589 79.937 C 87.198 80.648,87.255 83.415,87.432 121.119 L 87.622 161.538 87.714 121.078 L 87.805 80.618 86.708 79.521 C 85.396 78.208,84.861 78.163,83.487 79.244 M176.310 151.770 C 176.185 151.895,174.526 152.171,172.623 152.383 C 170.720 152.596,168.799 152.928,168.353 153.122 C 167.573 153.460,168.111 153.427,171.857 152.905 C 176.549 152.251,184.181 152.412,189.493 153.277 C 190.582 153.454,190.661 153.427,189.959 153.117 C 188.363 152.412,176.808 151.272,176.310 151.770 M192.495 153.846 C 192.805 154.046,193.311 154.210,193.621 154.210 C 194.121 154.210,194.121 154.169,193.621 153.846 C 193.311 153.646,192.805 153.482,192.495 153.482 C 191.995 153.482,191.995 153.523,192.495 153.846 M161.163 154.992 C 160.338 155.383,159.916 155.695,160.225 155.685 C 160.984 155.660,163.941 154.276,163.227 154.280 C 162.917 154.281,161.989 154.602,161.163 154.992 M195.497 154.784 C 196.013 155.079,196.689 155.325,196.998 155.331 C 197.308 155.338,197.077 155.090,196.486 154.782 C 195.116 154.067,194.247 154.069,195.497 154.784 M175.901 158.249 C 176.784 158.328,178.135 158.327,178.903 158.246 C 179.671 158.166,178.949 158.101,177.298 158.102 C 175.647 158.104,175.019 158.170,175.901 158.249 M86.981 235.220 C 86.757 267.845,86.642 273.341,86.170 273.869 C 85.229 274.922,84.844 278.636,84.632 288.720 C 84.519 294.073,84.219 301.250,83.964 304.667 C 83.709 308.085,83.498 312.486,83.495 314.447 L 83.490 318.011 88.743 318.115 L 93.996 318.219 93.762 308.734 C 93.633 303.518,93.399 293.931,93.241 287.430 C 92.902 273.462,92.678 272.642,89.118 272.354 L 87.617 272.233 87.430 234.709 L 87.242 197.186 86.981 235.220 M127.767 197.923 C 126.322 198.584,126.572 198.589,128.893 197.945 C 130.029 197.629,130.399 197.421,129.831 197.416 C 129.315 197.411,128.386 197.639,127.767 197.923 M135.647 197.739 C 136.473 197.889,137.655 198.122,138.274 198.258 C 139.295 198.483,139.277 198.456,138.086 197.968 C 137.364 197.672,136.182 197.439,135.460 197.449 L 134.146 197.467 135.647 197.739 M140.474 199.064 C 141.066 199.373,141.741 199.624,141.975 199.622 C 142.210 199.621,141.918 199.368,141.327 199.060 C 140.736 198.751,140.060 198.500,139.826 198.501 C 139.591 198.503,139.883 198.756,140.474 199.064 M147.842 202.343 C 150.835 203.871,154.788 205.997,156.626 207.067 C 158.464 208.137,160.040 208.941,160.126 208.854 C 160.213 208.768,159.469 208.236,158.472 207.674 C 157.476 207.111,155.732 206.118,154.597 205.466 C 151.433 203.648,144.391 200.121,143.340 199.827 C 142.824 199.683,144.850 200.815,147.842 202.343 M196.811 203.249 C 193.961 204.749,192.346 207.507,192.564 210.503 C 192.690 212.238,193.400 212.920,193.792 211.684 C 194.652 208.975,197.127 208.207,199.404 209.944 C 200.080 210.460,200.955 210.874,201.349 210.865 C 201.913 210.852,201.856 210.753,201.079 210.396 C 199.895 209.853,197.749 208.056,197.749 207.609 C 197.749 207.065,201.307 203.752,201.889 203.754 C 202.810 203.756,204.883 205.206,205.242 206.100 C 205.565 206.901,205.582 206.905,205.605 206.168 C 205.684 203.594,199.840 201.655,196.811 203.249 M205.171 208.527 C 205.054 208.976,204.391 209.689,203.699 210.111 C 203.006 210.533,202.647 210.880,202.902 210.880 C 203.661 210.883,205.750 208.806,205.560 208.238 C 205.443 207.886,205.314 207.982,205.171 208.527 M186.116 208.904 C 184.930 209.355,184.504 212.388,185.460 213.569 C 186.777 215.198,189.202 215.901,190.169 214.934 C 190.821 214.282,190.722 213.884,189.909 213.884 C 188.973 213.884,188.711 213.098,188.983 211.110 C 189.106 210.213,189.060 209.390,188.881 209.281 C 188.702 209.172,188.514 209.775,188.464 210.622 C 188.332 212.867,187.571 213.482,186.542 212.174 C 185.261 210.546,185.584 209.356,187.430 208.902 L 188.180 208.717 187.430 208.704 C 187.017 208.696,186.426 208.786,186.116 208.904 M160.600 209.123 C 160.600 209.227,162.331 210.322,164.447 211.556 C 178.613 219.820,189.754 224.662,197.936 226.110 C 204.455 227.263,214.902 226.295,217.054 224.339 C 217.250 224.161,217.657 224.015,217.957 224.015 C 219.777 224.015,231.144 214.642,231.144 213.142 C 231.144 212.971,230.005 214.014,228.612 215.459 C 217.387 227.108,203.837 229.244,186.304 222.127 C 185.685 221.876,184.841 221.535,184.428 221.369 C 182.144 220.453,174.115 216.499,170.544 214.531 C 164.822 211.379,164.013 210.926,162.195 209.865 C 161.318 209.353,160.600 209.019,160.600 209.123 M201.016 218.392 C 199.674 219.448,198.971 221.646,199.732 222.407 C 200.237 222.912,200.325 222.889,200.544 222.198 C 200.752 221.543,201.148 221.406,203.115 221.312 L 205.441 221.201 205.564 219.904 C 205.775 217.688,203.059 216.785,201.016 218.392 M205.253 219.887 C 205.253 221.108,204.665 221.327,203.321 220.608 C 202.600 220.222,202.595 220.169,203.217 219.482 C 204.246 218.345,205.253 218.545,205.253 219.887 M220.277 237.219 C 219.605 237.940,219.284 238.649,219.629 238.649 C 219.694 238.649,220.121 238.143,220.579 237.523 C 221.550 236.209,221.379 236.036,220.277 237.219 M137.563 237.438 C 137.997 237.795,138.869 238.846,139.500 239.775 C 143.162 245.165,152.317 251.635,160.600 254.685 C 165.050 256.324,166.113 256.566,174.296 257.805 C 177.833 258.341,181.798 258.214,186.679 257.409 C 193.596 256.269,195.928 255.606,200.667 253.439 C 201.756 252.940,202.722 252.533,202.813 252.533 C 204.401 252.533,217.636 242.516,217.636 241.314 C 217.636 241.137,217.889 240.782,218.199 240.525 C 218.508 240.268,218.762 239.910,218.762 239.729 C 218.762 239.542,201.796 239.400,179.557 239.400 L 140.351 239.400 138.999 238.086 C 138.255 237.364,137.450 236.777,137.210 236.781 C 136.970 236.786,137.128 237.081,137.563 237.438 M278.705 291.822 C 279.170 291.911,279.930 291.911,280.394 291.822 C 280.858 291.733,280.478 291.659,279.550 291.659 C 278.621 291.659,278.241 291.733,278.705 291.822 M346.341 291.878 C 346.341 291.952,346.864 292.672,347.504 293.480 C 348.939 295.292,349.328 297.518,348.445 298.866 L 347.825 299.812 311.074 299.812 L 274.323 299.812 273.883 298.991 C 273.641 298.539,273.444 297.484,273.444 296.647 C 273.444 295.301,273.404 295.232,273.101 296.051 C 271.887 299.331,273.189 300.550,277.915 300.557 C 282.196 300.564,282.145 300.529,282.221 303.502 C 282.245 304.465,282.408 305.760,282.583 306.379 C 282.801 307.152,282.847 306.666,282.728 304.828 C 282.564 302.300,282.602 302.138,283.397 301.925 C 286.082 301.205,347.471 301.692,348.218 302.439 C 350.809 305.030,344.382 320.678,339.842 322.832 C 338.380 323.526,291.932 323.808,291.932 323.122 C 291.932 322.941,291.426 322.583,290.807 322.326 C 290.188 322.070,289.681 321.627,289.681 321.343 C 289.681 321.058,289.524 320.826,289.331 320.826 C 289.139 320.826,288.883 320.518,288.764 320.141 C 288.645 319.765,288.253 319.132,287.894 318.734 C 286.884 317.614,285.093 313.844,283.993 310.519 C 283.434 308.831,282.986 307.918,282.973 308.443 C 282.961 308.959,283.506 310.837,284.183 312.617 C 289.213 325.834,299.280 333.838,314.259 336.526 C 317.803 337.163,336.110 337.116,340.150 336.460 C 353.646 334.271,365.274 324.430,368.822 312.195 C 369.091 311.266,369.535 309.916,369.808 309.193 C 370.081 308.471,370.411 306.534,370.541 304.889 C 370.855 300.927,370.842 300.938,375.267 300.938 C 379.547 300.938,379.737 300.793,379.737 297.536 C 379.737 295.384,378.846 293.544,377.318 292.543 C 376.495 292.003,346.341 291.357,346.341 291.878 M274.298 293.620 C 273.814 294.135,273.489 294.619,273.576 294.696 C 273.663 294.773,274.126 294.351,274.606 293.759 C 275.681 292.434,275.492 292.349,274.298 293.620 " stroke="none" fill="#349def" fill-rule="evenodd"></path><path id="path4" d="M237.055 33.305 C 236.488 33.657,235.845 34.485,235.627 35.146 C 235.389 35.867,234.718 36.651,233.951 37.103 C 231.496 38.552,231.490 38.605,231.638 58.318 C 231.711 68.035,231.902 76.533,232.063 77.202 L 232.355 78.419 172.932 78.533 C 133.298 78.608,112.996 78.776,111.970 79.037 C 106.621 80.397,102.311 84.528,100.802 89.739 C 100.239 91.683,100.188 101.329,100.188 205.030 L 100.188 318.199 97.092 318.236 C 91.235 318.306,89.257 318.837,94.631 318.897 C 97.341 318.927,99.493 319.111,99.625 319.325 C 99.752 319.531,99.698 319.700,99.504 319.700 C 99.310 319.700,98.714 320.272,98.181 320.972 L 97.210 322.244 99.462 323.086 C 102.084 324.067,102.349 323.945,101.733 322.045 C 101.381 320.959,101.226 294.514,101.051 206.315 L 100.825 91.991 101.697 89.280 C 102.843 85.717,105.858 82.363,109.525 80.574 L 112.008 79.362 173.081 79.261 L 234.154 79.159 233.443 77.760 C 232.779 76.454,232.722 75.122,232.595 57.922 C 232.442 37.320,232.278 38.682,235.084 37.245 C 236.418 36.562,236.760 36.113,236.767 35.031 C 236.773 34.169,237.428 33.771,238.841 33.771 C 239.964 33.771,240.901 34.703,240.901 35.822 C 240.901 37.902,245.397 37.594,245.929 35.476 C 246.717 32.336,257.606 32.496,258.920 35.667 C 259.597 37.301,259.160 76.160,258.452 77.294 C 257.654 78.572,255.443 79.174,251.556 79.174 C 247.482 79.174,247.213 79.491,249.971 81.036 C 253.460 82.990,255.885 85.930,257.075 89.647 C 257.654 91.457,257.749 91.580,257.766 90.547 C 257.777 89.889,257.639 89.259,257.459 89.148 C 257.280 89.037,257.030 88.478,256.904 87.906 C 256.538 86.247,254.262 83.500,251.551 81.448 L 249.044 79.550 253.013 79.550 L 256.982 79.550 258.322 78.286 L 259.662 77.022 259.662 56.691 C 259.662 31.256,260.101 32.645,252.069 32.645 L 247.580 32.645 246.304 33.921 C 245.602 34.623,245.028 35.467,245.028 35.797 C 245.028 36.937,242.159 36.602,241.864 35.427 C 241.267 33.050,239.047 32.070,237.055 33.305 M247.869 35.862 C 247.065 36.665,247.729 38.649,248.802 38.649 C 248.996 38.649,248.800 38.293,248.365 37.858 C 247.034 36.528,248.006 36.089,252.587 35.953 C 257.681 35.802,257.497 35.272,252.350 35.272 C 249.313 35.272,248.329 35.401,247.869 35.862 M256.911 37.217 C 256.773 37.768,256.365 38.296,256.003 38.391 C 255.398 38.549,255.397 38.565,255.991 38.606 C 256.688 38.653,257.551 37.382,257.311 36.661 C 257.229 36.416,257.050 36.667,256.911 37.217 M235.346 70.948 C 235.231 75.949,234.902 75.797,245.869 75.797 L 254.730 75.797 255.507 74.809 C 256.091 74.067,256.269 73.341,256.222 71.901 C 256.166 70.192,256.145 70.146,256.028 71.482 C 255.684 75.432,255.711 75.422,245.779 75.422 C 235.473 75.422,235.764 75.566,235.535 70.356 C 235.420 67.761,235.418 67.768,235.346 70.948 M257.823 139.024 C 257.756 222.610,257.359 318.367,257.076 319.137 C 255.311 323.940,253.134 326.545,249.045 328.747 L 246.717 330.001 236.374 330.197 L 226.032 330.394 224.577 331.562 C 223.776 332.205,222.686 333.556,222.153 334.564 L 221.185 336.398 218.004 336.508 C 212.561 336.698,211.922 335.974,214.634 332.691 C 215.460 331.692,216.135 330.725,216.135 330.541 C 216.135 330.064,140.662 330.102,139.406 330.579 C 137.968 331.126,136.232 332.883,135.299 334.735 C 134.312 336.696,133.178 337.096,129.187 336.896 C 125.273 336.699,124.722 335.530,127.210 332.697 C 127.826 331.995,128.330 331.232,128.330 331.001 C 128.330 330.138,114.849 330.767,112.272 331.751 C 110.780 332.321,111.814 332.937,115.996 333.971 C 123.849 335.911,119.357 336.166,76.923 336.188 C 36.203 336.210,39.472 336.474,37.905 333.035 C 35.749 328.302,36.217 323.585,39.146 320.544 L 40.682 318.949 60.209 318.889 C 70.950 318.855,78.471 318.709,76.923 318.562 C 75.375 318.416,66.662 318.275,57.561 318.248 L 41.013 318.199 39.496 319.298 C 34.353 323.023,34.920 334.018,40.379 336.432 L 42.327 337.293 88.359 337.361 C 121.518 337.410,134.507 337.313,134.805 337.015 C 135.033 336.787,135.653 335.711,136.184 334.623 C 136.880 333.196,137.566 332.412,138.649 331.807 L 140.150 330.969 177.142 330.963 C 197.487 330.960,214.239 331.062,214.368 331.191 C 214.496 331.319,214.177 331.982,213.657 332.663 C 212.917 333.634,212.737 334.254,212.829 335.525 L 212.946 337.148 216.698 337.258 C 221.604 337.401,222.020 337.279,222.506 335.550 C 223.660 331.444,225.097 330.958,236.098 330.953 C 242.853 330.950,245.653 330.813,246.904 330.423 C 251.509 328.989,254.614 326.402,256.545 322.391 L 257.931 319.512 258.206 306.567 C 258.579 288.951,258.539 94.233,258.162 93.058 C 257.996 92.542,257.844 113.227,257.823 139.024 M178.311 99.137 C 177.191 100.257,178.434 102.011,179.821 101.268 C 180.648 100.826,180.697 99.223,179.894 98.914 C 179.056 98.593,178.823 98.626,178.311 99.137 M221.097 101.522 C 220.012 102.282,219.829 107.991,220.861 108.848 C 221.615 109.473,227.373 109.355,228.020 108.701 C 228.675 108.039,228.800 102.293,228.176 101.542 C 227.480 100.702,222.288 100.688,221.097 101.522 M231.515 104.899 C 231.068 107.056,231.392 108.818,232.237 108.818 C 232.872 108.818,233.020 107.557,232.652 105.296 C 232.180 102.394,232.045 102.347,231.515 104.899 M210.459 108.912 C 210.742 109.273,211.333 109.549,211.772 109.525 C 212.530 109.484,212.533 109.472,211.820 109.297 C 211.407 109.195,210.816 108.920,210.507 108.684 C 210.017 108.311,210.011 108.341,210.459 108.912 M186.210 113.740 C 184.999 115.323,184.664 116.323,185.347 116.323 C 185.998 116.323,187.677 113.750,187.552 112.942 C 187.445 112.248,187.276 112.348,186.210 113.740 M171.482 113.800 C 171.482 114.552,172.593 115.947,173.192 115.947 C 173.974 115.947,173.863 115.516,172.780 114.349 C 171.715 113.200,171.482 113.102,171.482 113.800 M172.795 151.641 C 169.255 152.198,164.978 153.133,164.264 153.506 C 163.906 153.693,163.198 153.846,162.691 153.846 C 162.185 153.846,161.679 153.995,161.566 154.176 C 161.454 154.358,160.484 154.794,159.410 155.145 C 147.262 159.119,134.908 171.375,129.423 184.897 C 129.235 185.361,128.921 186.121,128.726 186.585 C 128.530 187.050,128.095 188.443,127.758 189.681 C 127.421 190.919,127.005 192.439,126.832 193.058 C 126.096 195.699,125.655 200.899,125.781 205.441 L 125.916 210.319 125.997 204.806 C 126.044 201.629,126.238 199.196,126.454 199.062 C 126.660 198.934,126.829 198.083,126.829 197.169 C 126.829 194.416,128.863 187.444,131.006 182.850 C 132.183 180.326,135.037 175.221,135.474 174.859 C 135.598 174.756,136.399 173.717,137.254 172.550 C 138.737 170.525,144.358 164.811,146.341 163.314 C 154.815 156.915,162.562 153.701,172.983 152.264 C 179.849 151.318,191.009 152.461,196.060 154.629 C 196.473 154.806,197.697 155.291,198.780 155.706 C 211.406 160.547,223.543 172.579,228.132 184.803 C 228.287 185.216,228.690 186.192,229.029 186.973 C 229.367 187.754,229.644 188.643,229.644 188.948 C 229.644 189.254,229.792 189.797,229.974 190.155 C 230.558 191.304,231.124 194.238,231.748 199.340 C 232.341 204.202,232.312 205.917,231.550 210.879 C 231.344 212.218,231.312 213.451,231.479 213.618 C 232.557 214.696,232.917 201.762,231.978 195.685 C 230.969 189.152,227.320 180.252,223.285 174.483 C 220.243 170.133,212.581 162.286,210.507 161.398 C 210.197 161.265,208.730 160.354,207.245 159.374 C 205.761 158.393,203.735 157.243,202.743 156.818 C 201.751 156.392,200.348 155.789,199.626 155.477 C 198.903 155.165,197.757 154.670,197.079 154.378 C 196.401 154.085,195.543 153.846,195.172 153.846 C 194.800 153.846,194.373 153.722,194.221 153.571 C 192.839 152.188,177.877 150.841,172.795 151.641 M172.608 158.589 C 167.588 159.326,165.974 160.383,166.348 162.689 C 166.674 164.696,167.479 165.166,170.169 164.918 C 171.407 164.804,174.066 164.579,176.077 164.419 C 180.462 164.068,181.734 163.376,181.916 161.241 C 182.141 158.609,178.854 157.672,172.608 158.589 M155.991 165.303 C 153.329 166.893,150.151 169.232,149.191 170.306 C 148.798 170.747,148.292 171.119,148.066 171.134 C 147.146 171.194,141.126 178.523,139.403 181.682 C 135.446 188.934,134.815 191.438,136.682 192.482 C 138.250 193.359,139.541 192.476,140.512 189.862 C 140.932 188.731,141.610 187.214,142.018 186.492 C 142.426 185.769,142.963 184.723,143.211 184.166 C 145.044 180.053,152.683 172.342,158.010 169.231 C 160.975 167.498,161.766 165.947,160.386 164.567 C 159.501 163.682,158.392 163.868,155.991 165.303 M237.611 220.638 C 237.611 221.360,237.688 221.656,237.782 221.295 C 237.876 220.933,237.876 220.342,237.782 219.981 C 237.688 219.620,237.611 219.916,237.611 220.638 M121.663 225.141 C 121.663 225.863,121.740 226.159,121.835 225.797 C 121.929 225.436,121.929 224.845,121.835 224.484 C 121.740 224.123,121.663 224.418,121.663 225.141 M122.332 228.424 C 122.329 229.301,122.495 230.019,122.702 230.019 C 123.180 230.019,123.180 228.133,122.702 227.392 C 122.435 226.980,122.336 227.256,122.332 228.424 M235.272 228.292 C 235.272 228.916,234.562 230.799,233.740 232.359 C 233.551 232.717,233.396 233.198,233.396 233.428 C 233.396 233.835,232.553 235.929,231.863 237.237 C 231.435 238.050,231.417 239.024,231.832 239.024 C 232.137 239.024,232.863 237.705,233.381 236.210 C 233.524 235.797,234.009 234.700,234.458 233.771 C 234.907 232.842,235.274 231.841,235.273 231.546 C 235.273 231.251,235.475 230.449,235.723 229.764 C 236.073 228.795,236.073 228.418,235.723 228.068 C 235.372 227.717,235.272 227.767,235.272 228.292 M226.011 230.045 C 225.567 230.856,225.327 231.520,225.478 231.520 C 225.771 231.520,227.128 228.879,226.934 228.685 C 226.871 228.622,226.455 229.234,226.011 230.045 M123.077 231.180 C 123.077 231.613,123.318 232.415,123.613 232.963 C 123.908 233.511,124.371 234.774,124.642 235.770 C 125.124 237.546,125.873 238.605,126.325 238.153 C 126.450 238.028,126.206 237.033,125.784 235.942 C 125.361 234.851,124.725 233.157,124.370 232.176 C 123.696 230.313,123.077 229.836,123.077 231.180 M132.083 230.547 C 132.083 232.342,140.680 242.809,145.051 246.336 C 146.070 247.158,147.232 248.129,147.632 248.493 C 148.032 248.858,148.514 249.156,148.703 249.156 C 148.893 249.156,149.549 249.578,150.162 250.094 C 150.775 250.610,151.517 251.032,151.811 251.032 C 152.105 251.032,152.345 251.170,152.345 251.338 C 152.345 251.647,157.465 254.128,160.600 255.340 C 161.529 255.698,162.677 256.142,163.151 256.326 C 163.625 256.510,164.478 256.660,165.046 256.660 C 165.614 256.660,166.245 256.827,166.448 257.030 C 168.168 258.750,190.119 258.726,191.914 257.003 C 192.110 256.814,192.817 256.660,193.486 256.660 C 194.155 256.660,194.807 256.492,194.934 256.285 C 195.062 256.079,195.488 255.910,195.882 255.910 C 197.307 255.910,204.583 252.384,208.673 249.711 C 213.902 246.294,219.854 240.511,222.699 236.082 C 223.317 235.121,224.119 234.007,224.482 233.607 C 224.844 233.206,225.141 232.708,225.141 232.500 C 225.141 231.970,224.827 232.346,222.201 236.023 C 217.717 242.302,205.698 252.533,202.804 252.533 C 202.718 252.533,201.756 252.940,200.667 253.439 C 195.928 255.606,193.596 256.269,186.679 257.409 C 180.275 258.465,177.573 258.404,169.231 257.013 C 155.951 254.800,142.476 245.869,134.733 234.146 C 132.147 230.232,132.083 230.145,132.083 230.547 M312.383 259.645 C 310.398 260.466,309.070 263.114,309.455 265.485 C 309.620 266.505,309.446 267.127,308.667 268.304 C 306.306 271.873,305.066 275.420,305.066 278.608 C 305.066 280.442,303.545 281.571,301.505 281.252 C 297.216 280.582,296.174 280.603,294.537 281.394 C 293.596 281.848,292.173 282.176,291.143 282.176 C 286.850 282.176,281.801 286.858,281.801 290.838 C 281.801 291.234,281.590 291.574,281.332 291.595 C 280.779 291.639,282.483 292.218,283.302 292.265 C 283.797 292.292,283.798 292.254,283.310 291.945 C 282.518 291.444,282.804 289.106,283.858 287.462 C 285.819 284.405,287.673 283.367,292.289 282.744 C 293.208 282.620,294.206 282.315,294.507 282.066 C 294.881 281.758,296.435 281.643,299.380 281.705 C 305.148 281.826,306.182 281.031,306.189 276.467 C 306.192 274.537,307.160 271.875,308.749 269.424 C 309.896 267.655,310.078 267.080,310.000 265.465 C 309.800 261.294,315.046 258.090,317.269 261.026 C 319.028 263.348,317.788 264.618,313.917 264.457 C 311.000 264.335,310.596 264.678,310.946 266.979 C 311.233 268.868,311.190 268.830,312.884 268.730 C 315.706 268.563,318.125 270.061,319.540 272.852 C 320.466 274.677,322.024 276.173,323.000 276.173 C 324.154 276.173,327.460 279.114,328.758 281.297 C 330.217 283.749,330.224 283.751,335.560 283.098 C 339.844 282.573,344.014 285.068,345.141 288.828 C 345.968 291.588,345.826 291.925,343.809 291.993 C 342.349 292.042,342.257 292.081,343.298 292.208 C 348.624 292.858,346.479 285.876,340.397 282.763 C 339.142 282.121,338.894 282.117,331.911 282.630 C 330.530 282.732,330.369 282.636,329.589 281.253 C 328.296 278.962,325.942 276.715,323.741 275.674 C 321.478 274.603,320.863 274.006,319.755 271.801 C 318.739 269.779,316.722 268.535,314.071 268.293 L 312.008 268.105 312.008 266.604 L 312.008 265.103 315.079 264.995 L 318.150 264.886 318.573 263.606 C 319.541 260.671,315.756 258.250,312.383 259.645 M296.904 267.913 C 295.788 268.594,295.685 268.817,295.685 270.548 C 295.685 272.817,296.403 273.273,299.414 272.916 C 301.636 272.653,302.439 273.131,302.439 274.718 C 302.439 275.928,302.714 276.041,303.774 275.264 C 304.755 274.546,304.776 270.819,303.808 269.357 C 302.417 267.257,299.113 266.567,296.904 267.913 M301.433 268.523 C 303.386 269.455,304.777 272.609,303.565 273.358 C 303.358 273.486,303.189 273.345,303.189 273.045 C 303.189 272.256,302.352 272.045,299.219 272.045 L 296.435 272.045 296.435 270.556 C 296.435 268.206,298.773 267.255,301.433 268.523 " stroke="none" fill="#8894f0" fill-rule="evenodd"></path></g></svg>